<svg xmlns="http://www.w3.org/2000/svg" viewBox="0 0 48 48" width="48" height="48"><linearGradient id="a" x1="24" x2="24" y1="2" y2="46" gradientUnits="userSpaceOnUse"><stop offset="0" stop-color="#504a44"/><stop offset="1" stop-color="#3d3530"/></linearGradient><circle fill="url(#a)" cx="24" cy="9" r="5"/><circle fill="url(#a)" cx="9" cy="13" r="4"/><circle fill="url(#a)" cx="39" cy="13" r="4"/><path fill="url(#a)" d="M16 22c0-2.2 1.8-4 4-4h8c2.2 0 4 1.8 4 4v8c0 1.1-.9 2-2 2h-1v8c0 1.1-.9 2-2 2h-6c-1.1 0-2-.9-2-2v-8h-1c-1.1 0-2-.9-2-2v-8z"/><path fill="#5c4a3a" d="M2 21c0-1.7 1.3-3 3-3h4c1.7 0 3 1.3 3 3v6c0 1.1-.9 2-2 2H9v7c0 1.1-.9 2-2 2H5c-1.1 0-2-.9-2-2v-7H2.5c-.3 0-.5-.2-.5-.5V21zM36 21c0-1.7 1.3-3 3-3h4c1.7 0 3 1.3 3 3v6.5c0 .3-.2.5-.5.5H45v7c0 1.1-.9 2-2 2h-2c-1.1 0-2-.9-2-2v-7h-1c-1.1 0-2-.9-2-2v-6z"/></svg>