<svg xmlns="http://www.w3.org/2000/svg" viewBox="0 0 48 48" width="48" height="48"><linearGradient id="a" x1="6" x2="42" y1="41" y2="41" gradientUnits="userSpaceOnUse"><stop offset="0" stop-color="#8b7d6b"/><stop offset="1" stop-color="#8b7d6b"/></linearGradient><path fill="url(#a)" d="M42,39H6v2c0,1.105,0.895,2,2,2h32c1.105,0,2-0.895,2-2V39z"/><linearGradient id="b" x1="14.095" x2="31.385" y1="10.338" y2="43.787" gradientUnits="userSpaceOnUse"><stop offset="0" stop-color="#f5f0eb"/><stop offset=".495" stop-color="#ebe4db"/><stop offset=".946" stop-color="#ddd4c8"/><stop offset="1" stop-color="#ddd4c8"/></linearGradient><path fill="url(#b)" d="M42,39H6V20L24,3l18,17V39z"/><path fill="#5c4a3a" d="M13,25h10c0.552,0,1,0.448,1,1v17H12V26C12,25.448,12.448,25,13,25z"/><path d="M24,4c-0.474,0-0.948,0.168-1.326,0.503l-5.359,4.811L6,20v5.39L24,9.428L42,25.39V20L30.685,9.314l-5.359-4.811C24.948,4.168,24.474,4,24,4z" opacity=".05"/><path d="M24,3c-0.474,0-0.948,0.167-1.326,0.5l-5.359,4.784L6,18.909v5.359L24,8.397l18,15.871v-5.359L30.685,8.284L25.326,3.5C24.948,3.167,24.474,3,24,3z" opacity=".07"/><linearGradient id="c" x1="24" x2="24" y1="1.684" y2="23.696" gradientUnits="userSpaceOnUse"><stop offset="0" stop-color="#504a44"/><stop offset="1" stop-color="#3d3530"/></linearGradient><path fill="url(#c)" d="M44.495,19.507L25.326,2.503C24.948,2.168,24.474,2,24,2s-0.948,0.168-1.326,0.503L3.505,19.507c-0.42,0.374-0.449,1.02-0.064,1.43l1.636,1.745c0.369,0.394,0.984,0.424,1.39,0.067L24,7.428L41.533,22.75c0.405,0.356,1.021,0.327,1.39-0.067l1.636-1.745C44.944,20.527,44.915,19.881,44.495,19.507z"/><linearGradient id="d" x1="28.05" x2="35.614" y1="25.05" y2="32.614" gradientUnits="userSpaceOnUse"><stop offset="0" stop-color="#7a6b5a"/><stop offset="1" stop-color="#5c4a3a"/></linearGradient><path fill="url(#d)" d="M29,25h6c0.552,0,1,0.448,1,1v6c0,0.552-0.448,1-1,1h-6c-0.552,0-1-0.448-1-1v-6C28,25.448,28.448,25,29,25z"/></svg>